<?xml version="1.0" encoding="UTF-8"?>
<!DOCTYPE svg PUBLIC "-//W3C//DTD SVG 1.1//EN" "http://www.w3.org/Graphics/SVG/1.1/DTD/svg11.dtd">
<!-- Creator: CorelDRAW -->
<svg xmlns="http://www.w3.org/2000/svg" xml:space="preserve" width="8.0805mm" height="8.0161mm" version="1.1" style="shape-rendering:geometricPrecision; text-rendering:geometricPrecision; image-rendering:optimizeQuality; fill-rule:evenodd; clip-rule:evenodd"
viewBox="0 0 6.92 6.87"
 xmlns:xlink="http://www.w3.org/1999/xlink"
 xmlns:xodm="http://www.corel.com/coreldraw/odm/2003">
 <defs>
  <style type="text/css">
   <![CDATA[
    .fil0 {fill:white}
   ]]>
  </style>
 </defs>
 <g id="Capa_x0020_1">
  <metadata id="CorelCorpID_0Corel-Layer"/>
  <g id="_1815999651008">
   <path class="fil0" d="M5.53 6.15c-0.06,0.01 -0.36,0.2 -0.72,0.28 -0.29,0.06 -0.35,0.08 -0.66,0.09 -0.05,0 -0.07,0.01 -0.1,0.01 -0.22,-0.02 -0.27,0 -0.57,-0.06 -0.32,-0.06 -0.65,-0.17 -0.92,-0.34 -0.12,-0.07 -0.18,-0.11 -0.3,-0.19 -0.36,-0.27 -0.61,-0.52 -0.84,-0.92 -0.24,-0.41 -0.43,-0.93 -0.43,-1.58 0,-0.63 0.14,-1.07 0.43,-1.58l0.2 -0.3c0.04,-0.05 0.08,-0.09 0.11,-0.14l0.12 -0.13c0.09,-0.09 0.17,-0.16 0.26,-0.24 0.04,-0.04 0.09,-0.07 0.14,-0.11l0.15 -0.1c0.42,-0.28 1.04,-0.49 1.52,-0.49 0.13,0 0.06,-0.01 0.22,0 0.37,0.02 0.29,0 0.67,0.08 0.38,0.08 0.67,0.26 0.73,0.28 -0.02,-0.03 -0.13,-0.1 -0.17,-0.13l-0.59 -0.32c-0.07,-0.03 -0.14,-0.06 -0.22,-0.08 -0.34,-0.11 -0.7,-0.18 -1.06,-0.19l-0.17 0c-0.38,0.01 -0.75,0.08 -1.1,0.22 -0.23,0.09 -0.4,0.17 -0.6,0.3l-0.59 0.46c-0.04,0.03 -0.04,0.04 -0.07,0.08 -0.03,0.03 -0.05,0.05 -0.08,0.08 -0.03,0.03 -0.04,0.05 -0.07,0.08 -0.05,0.05 -0.09,0.11 -0.13,0.16 -0.66,0.87 -0.85,1.97 -0.52,3.1l0.17 0.43c0.07,0.14 0.14,0.26 0.22,0.39 0.05,0.08 0.2,0.28 0.26,0.35l0.37 0.37c0.09,0.07 0.11,0.11 0.26,0.21 0.41,0.27 0.74,0.45 1.25,0.56 0.76,0.16 1.58,0.08 2.28,-0.28l0.2 -0.11c0.07,-0.04 0.33,-0.2 0.37,-0.25z"/>
   <path class="fil0" d="M2.52 1.25c0.03,-0.01 0.28,-0.14 0.58,-0.22 0.47,-0.12 0.93,-0.09 1.39,0.06l0.28 0.11c0.36,0.18 0.63,0.4 0.88,0.71 0.03,0.04 0.05,0.08 0.08,0.12 0.24,0.32 0.43,0.87 0.43,1.39 -0,0.53 -0.15,0.91 -0.34,1.26 -0.14,0.26 -0.42,0.56 -0.66,0.73 -0.73,0.54 -1.66,0.63 -2.5,0.26 -0.04,-0.02 -0.09,-0.05 -0.14,-0.07 0.07,0.09 0.48,0.3 0.6,0.35 0.32,0.13 0.42,0.15 0.77,0.2 0.27,0.04 0.65,0.01 0.88,-0.04 0.13,-0.03 0.25,-0.07 0.37,-0.11 0.27,-0.1 0.63,-0.3 0.83,-0.5l0.19 -0.18c0.29,-0.29 0.51,-0.67 0.63,-1.06 0.07,-0.22 0.12,-0.46 0.13,-0.7l0 -0.27c-0.02,-0.49 -0.17,-0.98 -0.44,-1.37l-0.2 -0.28c-0.04,-0.04 -0.07,-0.08 -0.12,-0.13 -0.42,-0.42 -0.8,-0.64 -1.39,-0.79 -0.62,-0.16 -1.42,-0.03 -1.98,0.31 -0.06,0.04 -0.25,0.15 -0.29,0.2z"/>
   <path class="fil0" d="M1.9 3.09c0,0.24 -0.03,0.75 0.04,0.95 0.05,0.16 0.15,0.28 0.28,0.38 0.04,0.03 0.16,0.1 0.22,0.11 0,-0.15 -0.01,-1.36 0,-1.45 0.06,-0.37 0.53,-0.29 0.53,0.02l0 0.13 0.54 0c0,-0.3 -0.02,-0.49 -0.24,-0.71 -0.51,-0.51 -1.38,-0.13 -1.38,0.56z"/>
   <path class="fil0" d="M3.68 4.58l0.54 0 0 -0.8 0.51 0c0.03,0 0.03,-0.01 0.03,-0.03l0 -0.52 -1.08 0 0 1.35z"/>
   <polygon class="fil0" points="3.68,3.19 4.22,3.19 4.22,2.84 5.02,2.84 5.02,2.3 3.68,2.3 "/>
   <path class="fil0" d="M2.72 4.03c-0.13,0 -0.15,-0.04 -0.23,-0.1l0 0.62c0.13,0.01 0.21,0.05 0.4,0 0.36,-0.09 0.62,-0.41 0.62,-0.77 0,-0.11 0.01,-0.15 -0.03,-0.15 -0.6,0 -0.5,-0.04 -0.51,0.13 -0,0.16 -0.12,0.27 -0.25,0.27z"/>
   <polygon class="fil0" points="5.53,0.71 5.53,0.73 5.54,0.72 "/>
   <polygon class="fil0" points="5.53,6.15 5.54,6.15 5.53,6.14 "/>
   <polygon class="fil0" points="2.52,1.25 2.49,1.26 "/>
   <polygon class="fil0" points="2.52,5.62 2.49,5.6 "/>
  </g>
 </g>
</svg>
